<mxfile host="app.diagrams.net" modified="2022-03-19T17:26:20.715Z" agent="5.0 (Macintosh; Intel Mac OS X 10_15_7) AppleWebKit/537.36 (KHTML, like Gecko) Chrome/99.0.4844.74 Safari/537.36" etag="rzrNgRC7V5piv2Sb5QxC" version="17.1.3" type="github">
  <diagram id="6a731a19-8d31-9384-78a2-239565b7b9f0" name="Page-1">
    <mxGraphModel dx="1955" dy="448" grid="1" gridSize="10" guides="1" tooltips="1" connect="1" arrows="1" fold="1" page="1" pageScale="1" pageWidth="1169" pageHeight="827" background="none" math="0" shadow="0">
      <root>
        <mxCell id="0" />
        <mxCell id="1" parent="0" />
        <mxCell id="kBjCQtuUGjo8xMoTbUDO-1542" value="Data Extraction" style="ellipse;whiteSpace=wrap;html=1;" parent="1" vertex="1">
          <mxGeometry x="1030" y="460" width="120" height="80" as="geometry" />
        </mxCell>
        <mxCell id="kBjCQtuUGjo8xMoTbUDO-1543" value="Techniques" style="ellipse;whiteSpace=wrap;html=1;" parent="1" vertex="1">
          <mxGeometry x="1010" y="254" width="120" height="80" as="geometry" />
        </mxCell>
        <mxCell id="kBjCQtuUGjo8xMoTbUDO-1545" value="" style="endArrow=classic;html=1;rounded=0;exitX=0.5;exitY=0;exitDx=0;exitDy=0;" parent="1" source="kBjCQtuUGjo8xMoTbUDO-1542" target="kBjCQtuUGjo8xMoTbUDO-1543" edge="1">
          <mxGeometry width="50" height="50" relative="1" as="geometry">
            <mxPoint x="780" y="630" as="sourcePoint" />
            <mxPoint x="830" y="580" as="targetPoint" />
          </mxGeometry>
        </mxCell>
        <mxCell id="kBjCQtuUGjo8xMoTbUDO-1546" value="Human Pose Estimation" style="ellipse;whiteSpace=wrap;html=1;" parent="1" vertex="1">
          <mxGeometry x="260" y="470" width="120" height="80" as="geometry" />
        </mxCell>
        <mxCell id="kBjCQtuUGjo8xMoTbUDO-1547" value="Techniques&lt;br&gt;" style="ellipse;whiteSpace=wrap;html=1;" parent="1" vertex="1">
          <mxGeometry x="160" y="370" width="120" height="80" as="geometry" />
        </mxCell>
        <mxCell id="kBjCQtuUGjo8xMoTbUDO-1548" value="2D Pose Estimation" style="ellipse;whiteSpace=wrap;html=1;" parent="1" vertex="1">
          <mxGeometry x="10" y="270" width="120" height="80" as="geometry" />
        </mxCell>
        <mxCell id="kBjCQtuUGjo8xMoTbUDO-1549" value="3D Pose Estimation" style="ellipse;whiteSpace=wrap;html=1;" parent="1" vertex="1">
          <mxGeometry x="140" y="240" width="120" height="80" as="geometry" />
        </mxCell>
        <mxCell id="kBjCQtuUGjo8xMoTbUDO-1550" value="" style="endArrow=classic;html=1;rounded=0;entryX=0.5;entryY=1;entryDx=0;entryDy=0;" parent="1" source="kBjCQtuUGjo8xMoTbUDO-1546" target="kBjCQtuUGjo8xMoTbUDO-1547" edge="1">
          <mxGeometry width="50" height="50" relative="1" as="geometry">
            <mxPoint x="780" y="620" as="sourcePoint" />
            <mxPoint x="830" y="570" as="targetPoint" />
          </mxGeometry>
        </mxCell>
        <mxCell id="kBjCQtuUGjo8xMoTbUDO-1551" value="" style="endArrow=none;html=1;rounded=0;entryX=1;entryY=1;entryDx=0;entryDy=0;" parent="1" source="kBjCQtuUGjo8xMoTbUDO-1547" target="kBjCQtuUGjo8xMoTbUDO-1548" edge="1">
          <mxGeometry width="50" height="50" relative="1" as="geometry">
            <mxPoint x="780" y="620" as="sourcePoint" />
            <mxPoint x="830" y="570" as="targetPoint" />
          </mxGeometry>
        </mxCell>
        <mxCell id="kBjCQtuUGjo8xMoTbUDO-1552" value="" style="endArrow=none;html=1;rounded=0;" parent="1" source="kBjCQtuUGjo8xMoTbUDO-1547" target="kBjCQtuUGjo8xMoTbUDO-1549" edge="1">
          <mxGeometry width="50" height="50" relative="1" as="geometry">
            <mxPoint x="780" y="620" as="sourcePoint" />
            <mxPoint x="830" y="570" as="targetPoint" />
          </mxGeometry>
        </mxCell>
        <mxCell id="kBjCQtuUGjo8xMoTbUDO-1553" value="Types" style="ellipse;whiteSpace=wrap;html=1;" parent="1" vertex="1">
          <mxGeometry x="390" y="590" width="120" height="80" as="geometry" />
        </mxCell>
        <mxCell id="kBjCQtuUGjo8xMoTbUDO-1554" value="" style="endArrow=classic;html=1;rounded=0;entryX=0.4;entryY=0.013;entryDx=0;entryDy=0;entryPerimeter=0;" parent="1" source="kBjCQtuUGjo8xMoTbUDO-1546" target="kBjCQtuUGjo8xMoTbUDO-1553" edge="1">
          <mxGeometry width="50" height="50" relative="1" as="geometry">
            <mxPoint x="780" y="620" as="sourcePoint" />
            <mxPoint x="830" y="570" as="targetPoint" />
          </mxGeometry>
        </mxCell>
        <mxCell id="kBjCQtuUGjo8xMoTbUDO-1555" value="Kinematic" style="ellipse;whiteSpace=wrap;html=1;" parent="1" vertex="1">
          <mxGeometry x="180" y="690" width="120" height="80" as="geometry" />
        </mxCell>
        <mxCell id="kBjCQtuUGjo8xMoTbUDO-1556" value="Planar" style="ellipse;whiteSpace=wrap;html=1;" parent="1" vertex="1">
          <mxGeometry x="390" y="700" width="120" height="80" as="geometry" />
        </mxCell>
        <mxCell id="kBjCQtuUGjo8xMoTbUDO-1557" value="Volumetric" style="ellipse;whiteSpace=wrap;html=1;" parent="1" vertex="1">
          <mxGeometry x="580" y="710" width="120" height="80" as="geometry" />
        </mxCell>
        <mxCell id="kBjCQtuUGjo8xMoTbUDO-1558" value="" style="endArrow=none;html=1;rounded=0;" parent="1" source="kBjCQtuUGjo8xMoTbUDO-1555" target="kBjCQtuUGjo8xMoTbUDO-1553" edge="1">
          <mxGeometry width="50" height="50" relative="1" as="geometry">
            <mxPoint x="780" y="620" as="sourcePoint" />
            <mxPoint x="830" y="570" as="targetPoint" />
          </mxGeometry>
        </mxCell>
        <mxCell id="kBjCQtuUGjo8xMoTbUDO-1559" value="" style="endArrow=none;html=1;rounded=0;" parent="1" source="kBjCQtuUGjo8xMoTbUDO-1556" target="kBjCQtuUGjo8xMoTbUDO-1553" edge="1">
          <mxGeometry width="50" height="50" relative="1" as="geometry">
            <mxPoint x="780" y="620" as="sourcePoint" />
            <mxPoint x="830" y="570" as="targetPoint" />
          </mxGeometry>
        </mxCell>
        <mxCell id="kBjCQtuUGjo8xMoTbUDO-1560" value="" style="endArrow=none;html=1;rounded=0;" parent="1" source="kBjCQtuUGjo8xMoTbUDO-1553" target="kBjCQtuUGjo8xMoTbUDO-1557" edge="1">
          <mxGeometry width="50" height="50" relative="1" as="geometry">
            <mxPoint x="780" y="620" as="sourcePoint" />
            <mxPoint x="830" y="570" as="targetPoint" />
          </mxGeometry>
        </mxCell>
        <mxCell id="kBjCQtuUGjo8xMoTbUDO-1561" value="Primary Approaches" style="ellipse;whiteSpace=wrap;html=1;" parent="1" vertex="1">
          <mxGeometry x="350" y="30" width="120" height="80" as="geometry" />
        </mxCell>
        <mxCell id="kBjCQtuUGjo8xMoTbUDO-1562" value="" style="endArrow=classic;html=1;rounded=0;exitX=0.5;exitY=0;exitDx=0;exitDy=0;" parent="1" source="kBjCQtuUGjo8xMoTbUDO-1570" target="kBjCQtuUGjo8xMoTbUDO-1561" edge="1">
          <mxGeometry width="50" height="50" relative="1" as="geometry">
            <mxPoint x="780" y="620" as="sourcePoint" />
            <mxPoint x="830" y="570" as="targetPoint" />
          </mxGeometry>
        </mxCell>
        <mxCell id="kBjCQtuUGjo8xMoTbUDO-1563" value="Bottom-Up" style="ellipse;whiteSpace=wrap;html=1;" parent="1" vertex="1">
          <mxGeometry x="80" y="30" width="120" height="80" as="geometry" />
        </mxCell>
        <mxCell id="kBjCQtuUGjo8xMoTbUDO-1564" value="Top-Down" style="ellipse;whiteSpace=wrap;html=1;" parent="1" vertex="1">
          <mxGeometry x="80" y="120" width="120" height="80" as="geometry" />
        </mxCell>
        <mxCell id="kBjCQtuUGjo8xMoTbUDO-1565" value="" style="endArrow=none;html=1;rounded=0;" parent="1" source="kBjCQtuUGjo8xMoTbUDO-1561" target="kBjCQtuUGjo8xMoTbUDO-1564" edge="1">
          <mxGeometry width="50" height="50" relative="1" as="geometry">
            <mxPoint x="780" y="620" as="sourcePoint" />
            <mxPoint x="830" y="570" as="targetPoint" />
          </mxGeometry>
        </mxCell>
        <mxCell id="kBjCQtuUGjo8xMoTbUDO-1566" value="" style="endArrow=none;html=1;rounded=0;" parent="1" source="kBjCQtuUGjo8xMoTbUDO-1561" target="kBjCQtuUGjo8xMoTbUDO-1563" edge="1">
          <mxGeometry width="50" height="50" relative="1" as="geometry">
            <mxPoint x="780" y="620" as="sourcePoint" />
            <mxPoint x="830" y="570" as="targetPoint" />
          </mxGeometry>
        </mxCell>
        <mxCell id="kBjCQtuUGjo8xMoTbUDO-1567" value="Methods" style="ellipse;whiteSpace=wrap;html=1;" parent="1" vertex="1">
          <mxGeometry x="70" y="490" width="120" height="80" as="geometry" />
        </mxCell>
        <mxCell id="kBjCQtuUGjo8xMoTbUDO-1568" value="" style="endArrow=classic;html=1;rounded=0;" parent="1" source="kBjCQtuUGjo8xMoTbUDO-1546" target="kBjCQtuUGjo8xMoTbUDO-1567" edge="1">
          <mxGeometry width="50" height="50" relative="1" as="geometry">
            <mxPoint x="520" y="620" as="sourcePoint" />
            <mxPoint x="570" y="570" as="targetPoint" />
          </mxGeometry>
        </mxCell>
        <mxCell id="kBjCQtuUGjo8xMoTbUDO-1569" value="Single Pose Estimation" style="ellipse;whiteSpace=wrap;html=1;" parent="1" vertex="1">
          <mxGeometry x="510" y="100" width="120" height="80" as="geometry" />
        </mxCell>
        <mxCell id="kBjCQtuUGjo8xMoTbUDO-1570" value="Multi Pose Estimation" style="ellipse;whiteSpace=wrap;html=1;" parent="1" vertex="1">
          <mxGeometry x="360" y="200" width="120" height="80" as="geometry" />
        </mxCell>
        <mxCell id="kBjCQtuUGjo8xMoTbUDO-1571" value="" style="endArrow=classic;html=1;rounded=0;exitX=1;exitY=0;exitDx=0;exitDy=0;" parent="1" source="kBjCQtuUGjo8xMoTbUDO-1546" target="kBjCQtuUGjo8xMoTbUDO-1569" edge="1">
          <mxGeometry width="50" height="50" relative="1" as="geometry">
            <mxPoint x="350" y="420" as="sourcePoint" />
            <mxPoint x="400" y="370" as="targetPoint" />
          </mxGeometry>
        </mxCell>
        <mxCell id="kBjCQtuUGjo8xMoTbUDO-1572" value="" style="endArrow=classic;html=1;rounded=0;entryX=0.067;entryY=0.838;entryDx=0;entryDy=0;entryPerimeter=0;" parent="1" source="kBjCQtuUGjo8xMoTbUDO-1546" target="kBjCQtuUGjo8xMoTbUDO-1570" edge="1">
          <mxGeometry width="50" height="50" relative="1" as="geometry">
            <mxPoint x="350" y="420" as="sourcePoint" />
            <mxPoint x="400" y="370" as="targetPoint" />
          </mxGeometry>
        </mxCell>
        <mxCell id="kBjCQtuUGjo8xMoTbUDO-1573" value="Regression Based Method" style="ellipse;whiteSpace=wrap;html=1;" parent="1" vertex="1">
          <mxGeometry x="740" y="100" width="120" height="80" as="geometry" />
        </mxCell>
        <mxCell id="kBjCQtuUGjo8xMoTbUDO-1574" value="Detection Based Method" style="ellipse;whiteSpace=wrap;html=1;" parent="1" vertex="1">
          <mxGeometry x="630" y="20" width="120" height="80" as="geometry" />
        </mxCell>
        <mxCell id="kBjCQtuUGjo8xMoTbUDO-1575" value="" style="endArrow=none;html=1;rounded=0;" parent="1" source="kBjCQtuUGjo8xMoTbUDO-1569" target="kBjCQtuUGjo8xMoTbUDO-1574" edge="1">
          <mxGeometry width="50" height="50" relative="1" as="geometry">
            <mxPoint x="350" y="410" as="sourcePoint" />
            <mxPoint x="400" y="360" as="targetPoint" />
          </mxGeometry>
        </mxCell>
        <mxCell id="kBjCQtuUGjo8xMoTbUDO-1576" value="" style="endArrow=none;html=1;rounded=0;" parent="1" source="kBjCQtuUGjo8xMoTbUDO-1569" target="kBjCQtuUGjo8xMoTbUDO-1573" edge="1">
          <mxGeometry width="50" height="50" relative="1" as="geometry">
            <mxPoint x="350" y="280" as="sourcePoint" />
            <mxPoint x="400" y="230" as="targetPoint" />
          </mxGeometry>
        </mxCell>
        <mxCell id="kBjCQtuUGjo8xMoTbUDO-1577" value="CNN" style="ellipse;whiteSpace=wrap;html=1;" parent="1" vertex="1">
          <mxGeometry x="-150" y="440" width="120" height="80" as="geometry" />
        </mxCell>
        <mxCell id="kBjCQtuUGjo8xMoTbUDO-1578" value="GCNN" style="ellipse;whiteSpace=wrap;html=1;" parent="1" vertex="1">
          <mxGeometry x="-120" y="540" width="120" height="80" as="geometry" />
        </mxCell>
        <mxCell id="kBjCQtuUGjo8xMoTbUDO-1579" value="" style="endArrow=none;html=1;rounded=0;" parent="1" source="kBjCQtuUGjo8xMoTbUDO-1577" target="kBjCQtuUGjo8xMoTbUDO-1567" edge="1">
          <mxGeometry width="50" height="50" relative="1" as="geometry">
            <mxPoint x="350" y="480" as="sourcePoint" />
            <mxPoint x="400" y="430" as="targetPoint" />
          </mxGeometry>
        </mxCell>
        <mxCell id="kBjCQtuUGjo8xMoTbUDO-1580" value="" style="endArrow=none;html=1;rounded=0;" parent="1" source="kBjCQtuUGjo8xMoTbUDO-1578" target="kBjCQtuUGjo8xMoTbUDO-1567" edge="1">
          <mxGeometry width="50" height="50" relative="1" as="geometry">
            <mxPoint x="350" y="480" as="sourcePoint" />
            <mxPoint x="400" y="430" as="targetPoint" />
          </mxGeometry>
        </mxCell>
        <mxCell id="kBjCQtuUGjo8xMoTbUDO-1581" value="Spectral Approaches" style="ellipse;whiteSpace=wrap;html=1;" parent="1" vertex="1">
          <mxGeometry x="-360" y="460" width="120" height="80" as="geometry" />
        </mxCell>
        <mxCell id="kBjCQtuUGjo8xMoTbUDO-1582" value="Non Spectral Approaches" style="ellipse;whiteSpace=wrap;html=1;" parent="1" vertex="1">
          <mxGeometry x="-360" y="590" width="120" height="80" as="geometry" />
        </mxCell>
        <mxCell id="kBjCQtuUGjo8xMoTbUDO-1583" value="" style="endArrow=none;html=1;rounded=0;entryX=0;entryY=0.5;entryDx=0;entryDy=0;" parent="1" source="kBjCQtuUGjo8xMoTbUDO-1581" target="kBjCQtuUGjo8xMoTbUDO-1578" edge="1">
          <mxGeometry width="50" height="50" relative="1" as="geometry">
            <mxPoint x="-170" y="655" as="sourcePoint" />
            <mxPoint x="-120" y="605" as="targetPoint" />
          </mxGeometry>
        </mxCell>
        <mxCell id="kBjCQtuUGjo8xMoTbUDO-1584" value="" style="endArrow=none;html=1;rounded=0;entryX=0.5;entryY=1;entryDx=0;entryDy=0;" parent="1" source="kBjCQtuUGjo8xMoTbUDO-1582" target="kBjCQtuUGjo8xMoTbUDO-1578" edge="1">
          <mxGeometry width="50" height="50" relative="1" as="geometry">
            <mxPoint x="350" y="600" as="sourcePoint" />
            <mxPoint x="400" y="550" as="targetPoint" />
          </mxGeometry>
        </mxCell>
        <mxCell id="kBjCQtuUGjo8xMoTbUDO-1585" value="Types" style="ellipse;whiteSpace=wrap;html=1;" parent="1" vertex="1">
          <mxGeometry x="-100" y="650" width="120" height="80" as="geometry" />
        </mxCell>
        <mxCell id="kBjCQtuUGjo8xMoTbUDO-1586" value="" style="endArrow=none;html=1;rounded=0;" parent="1" source="kBjCQtuUGjo8xMoTbUDO-1585" target="kBjCQtuUGjo8xMoTbUDO-1578" edge="1">
          <mxGeometry width="50" height="50" relative="1" as="geometry">
            <mxPoint x="350" y="600" as="sourcePoint" />
            <mxPoint x="400" y="550" as="targetPoint" />
          </mxGeometry>
        </mxCell>
        <mxCell id="kBjCQtuUGjo8xMoTbUDO-1587" value="PGCN" style="ellipse;whiteSpace=wrap;html=1;" parent="1" vertex="1">
          <mxGeometry x="-230" y="730" width="120" height="80" as="geometry" />
        </mxCell>
        <mxCell id="kBjCQtuUGjo8xMoTbUDO-1589" value="" style="endArrow=classic;html=1;rounded=0;exitX=0;exitY=0.5;exitDx=0;exitDy=0;" parent="1" source="kBjCQtuUGjo8xMoTbUDO-1585" target="kBjCQtuUGjo8xMoTbUDO-1587" edge="1">
          <mxGeometry width="50" height="50" relative="1" as="geometry">
            <mxPoint x="350" y="600" as="sourcePoint" />
            <mxPoint x="400" y="550" as="targetPoint" />
          </mxGeometry>
        </mxCell>
        <mxCell id="kBjCQtuUGjo8xMoTbUDO-1590" value="Physical Fitness" style="ellipse;whiteSpace=wrap;html=1;aspect=fixed;" parent="1" vertex="1">
          <mxGeometry x="600" y="430" width="80" height="80" as="geometry" />
        </mxCell>
        <mxCell id="kBjCQtuUGjo8xMoTbUDO-1591" value="Why" style="ellipse;whiteSpace=wrap;html=1;" parent="1" vertex="1">
          <mxGeometry x="525" y="280" width="120" height="80" as="geometry" />
        </mxCell>
        <mxCell id="kBjCQtuUGjo8xMoTbUDO-1593" value="" style="endArrow=classic;html=1;rounded=0;" parent="1" source="kBjCQtuUGjo8xMoTbUDO-1590" target="kBjCQtuUGjo8xMoTbUDO-1591" edge="1">
          <mxGeometry width="50" height="50" relative="1" as="geometry">
            <mxPoint x="770" y="600" as="sourcePoint" />
            <mxPoint x="820" y="550" as="targetPoint" />
          </mxGeometry>
        </mxCell>
        <mxCell id="kBjCQtuUGjo8xMoTbUDO-1594" value="Methods" style="ellipse;whiteSpace=wrap;html=1;" parent="1" vertex="1">
          <mxGeometry x="690" y="334" width="120" height="80" as="geometry" />
        </mxCell>
        <mxCell id="kBjCQtuUGjo8xMoTbUDO-1595" value="" style="endArrow=classic;html=1;rounded=0;entryX=0.5;entryY=1;entryDx=0;entryDy=0;" parent="1" source="kBjCQtuUGjo8xMoTbUDO-1590" target="kBjCQtuUGjo8xMoTbUDO-1594" edge="1">
          <mxGeometry width="50" height="50" relative="1" as="geometry">
            <mxPoint x="770" y="600" as="sourcePoint" />
            <mxPoint x="820" y="550" as="targetPoint" />
          </mxGeometry>
        </mxCell>
        <mxCell id="kBjCQtuUGjo8xMoTbUDO-1596" value="Diseases like Coronary heart diseases, blood pressure, stroke" style="ellipse;whiteSpace=wrap;html=1;" parent="1" vertex="1">
          <mxGeometry x="600" y="180" width="120" height="80" as="geometry" />
        </mxCell>
        <mxCell id="kBjCQtuUGjo8xMoTbUDO-1597" value="" style="endArrow=none;html=1;rounded=0;" parent="1" source="kBjCQtuUGjo8xMoTbUDO-1591" target="kBjCQtuUGjo8xMoTbUDO-1596" edge="1">
          <mxGeometry width="50" height="50" relative="1" as="geometry">
            <mxPoint x="770" y="580" as="sourcePoint" />
            <mxPoint x="820" y="530" as="targetPoint" />
          </mxGeometry>
        </mxCell>
        <mxCell id="kBjCQtuUGjo8xMoTbUDO-1598" value="Physically inacttive" style="ellipse;whiteSpace=wrap;html=1;" parent="1" vertex="1">
          <mxGeometry x="700" y="230" width="120" height="80" as="geometry" />
        </mxCell>
        <mxCell id="kBjCQtuUGjo8xMoTbUDO-1599" value="" style="endArrow=none;html=1;rounded=0;" parent="1" source="kBjCQtuUGjo8xMoTbUDO-1591" target="kBjCQtuUGjo8xMoTbUDO-1598" edge="1">
          <mxGeometry width="50" height="50" relative="1" as="geometry">
            <mxPoint x="770" y="480" as="sourcePoint" />
            <mxPoint x="820" y="430" as="targetPoint" />
          </mxGeometry>
        </mxCell>
        <mxCell id="kBjCQtuUGjo8xMoTbUDO-1600" value="Techniques" style="ellipse;whiteSpace=wrap;html=1;" parent="1" vertex="1">
          <mxGeometry x="710" y="560" width="120" height="80" as="geometry" />
        </mxCell>
        <mxCell id="kBjCQtuUGjo8xMoTbUDO-1602" value="" style="endArrow=classic;html=1;rounded=0;" parent="1" source="kBjCQtuUGjo8xMoTbUDO-1590" target="kBjCQtuUGjo8xMoTbUDO-1600" edge="1">
          <mxGeometry width="50" height="50" relative="1" as="geometry">
            <mxPoint x="730" y="480" as="sourcePoint" />
            <mxPoint x="780" y="430" as="targetPoint" />
          </mxGeometry>
        </mxCell>
        <mxCell id="kBjCQtuUGjo8xMoTbUDO-1604" value="Hourglass" style="ellipse;whiteSpace=wrap;html=1;" parent="1" vertex="1">
          <mxGeometry x="910" y="670" width="120" height="80" as="geometry" />
        </mxCell>
        <mxCell id="kBjCQtuUGjo8xMoTbUDO-1605" value="Microsoft Kinect to get realtime joints" style="ellipse;whiteSpace=wrap;html=1;" parent="1" vertex="1">
          <mxGeometry x="880" y="540" width="120" height="80" as="geometry" />
        </mxCell>
        <mxCell id="kBjCQtuUGjo8xMoTbUDO-1607" value="Multiple Convolution Networks" style="ellipse;whiteSpace=wrap;html=1;" parent="1" vertex="1">
          <mxGeometry x="760" y="700" width="120" height="80" as="geometry" />
        </mxCell>
        <mxCell id="kBjCQtuUGjo8xMoTbUDO-1610" value="" style="endArrow=none;html=1;rounded=0;" parent="1" source="kBjCQtuUGjo8xMoTbUDO-1600" target="kBjCQtuUGjo8xMoTbUDO-1607" edge="1">
          <mxGeometry width="50" height="50" relative="1" as="geometry">
            <mxPoint x="730" y="480" as="sourcePoint" />
            <mxPoint x="780" y="430" as="targetPoint" />
          </mxGeometry>
        </mxCell>
        <mxCell id="kBjCQtuUGjo8xMoTbUDO-1612" value="" style="endArrow=none;html=1;rounded=0;" parent="1" source="kBjCQtuUGjo8xMoTbUDO-1600" target="kBjCQtuUGjo8xMoTbUDO-1605" edge="1">
          <mxGeometry width="50" height="50" relative="1" as="geometry">
            <mxPoint x="730" y="480" as="sourcePoint" />
            <mxPoint x="780" y="430" as="targetPoint" />
          </mxGeometry>
        </mxCell>
        <mxCell id="kBjCQtuUGjo8xMoTbUDO-1613" value="" style="endArrow=none;html=1;rounded=0;" parent="1" source="kBjCQtuUGjo8xMoTbUDO-1600" target="kBjCQtuUGjo8xMoTbUDO-1604" edge="1">
          <mxGeometry width="50" height="50" relative="1" as="geometry">
            <mxPoint x="730" y="480" as="sourcePoint" />
            <mxPoint x="780" y="430" as="targetPoint" />
          </mxGeometry>
        </mxCell>
        <mxCell id="kBjCQtuUGjo8xMoTbUDO-1614" value="Smart Gym Trainer" style="ellipse;whiteSpace=wrap;html=1;" parent="1" vertex="1">
          <mxGeometry x="-550" y="210" width="120" height="80" as="geometry" />
        </mxCell>
        <mxCell id="kBjCQtuUGjo8xMoTbUDO-1615" value="Evoluation" style="ellipse;whiteSpace=wrap;html=1;" parent="1" vertex="1">
          <mxGeometry x="-470" y="110" width="120" height="80" as="geometry" />
        </mxCell>
        <mxCell id="kBjCQtuUGjo8xMoTbUDO-1616" value="" style="endArrow=classic;html=1;rounded=0;exitX=0.5;exitY=0;exitDx=0;exitDy=0;entryX=0;entryY=1;entryDx=0;entryDy=0;" parent="1" source="kBjCQtuUGjo8xMoTbUDO-1614" target="kBjCQtuUGjo8xMoTbUDO-1615" edge="1">
          <mxGeometry width="50" height="50" relative="1" as="geometry">
            <mxPoint x="-400" y="275" as="sourcePoint" />
            <mxPoint x="-350" y="225" as="targetPoint" />
          </mxGeometry>
        </mxCell>
        <mxCell id="kBjCQtuUGjo8xMoTbUDO-1617" value="Human Pose Estimation" style="ellipse;whiteSpace=wrap;html=1;" parent="1" vertex="1">
          <mxGeometry x="-510" y="20" width="120" height="80" as="geometry" />
        </mxCell>
        <mxCell id="kBjCQtuUGjo8xMoTbUDO-1618" value="Human Pose Tracking" style="ellipse;whiteSpace=wrap;html=1;" parent="1" vertex="1">
          <mxGeometry x="-310" y="60" width="120" height="80" as="geometry" />
        </mxCell>
        <mxCell id="kBjCQtuUGjo8xMoTbUDO-1619" value="" style="endArrow=none;html=1;rounded=0;exitX=0;exitY=0;exitDx=0;exitDy=0;" parent="1" source="kBjCQtuUGjo8xMoTbUDO-1615" target="kBjCQtuUGjo8xMoTbUDO-1617" edge="1">
          <mxGeometry width="50" height="50" relative="1" as="geometry">
            <mxPoint x="100" y="250" as="sourcePoint" />
            <mxPoint x="150" y="200" as="targetPoint" />
          </mxGeometry>
        </mxCell>
        <mxCell id="kBjCQtuUGjo8xMoTbUDO-1620" value="" style="endArrow=none;html=1;rounded=0;" parent="1" source="kBjCQtuUGjo8xMoTbUDO-1615" target="kBjCQtuUGjo8xMoTbUDO-1618" edge="1">
          <mxGeometry width="50" height="50" relative="1" as="geometry">
            <mxPoint x="100" y="250" as="sourcePoint" />
            <mxPoint x="150" y="200" as="targetPoint" />
          </mxGeometry>
        </mxCell>
        <mxCell id="Zgwb3vR_fiv5eUfwZVeL-1" value="apporaches" style="ellipse;whiteSpace=wrap;html=1;" vertex="1" parent="1">
          <mxGeometry x="-710" y="340" width="110" height="74" as="geometry" />
        </mxCell>
        <mxCell id="Zgwb3vR_fiv5eUfwZVeL-2" value="" style="endArrow=classic;html=1;rounded=0;entryX=1;entryY=0;entryDx=0;entryDy=0;" edge="1" parent="1" source="kBjCQtuUGjo8xMoTbUDO-1614" target="Zgwb3vR_fiv5eUfwZVeL-1">
          <mxGeometry width="50" height="50" relative="1" as="geometry">
            <mxPoint x="-530" y="360" as="sourcePoint" />
            <mxPoint x="-590" y="330" as="targetPoint" />
          </mxGeometry>
        </mxCell>
        <mxCell id="Zgwb3vR_fiv5eUfwZVeL-4" value="Using wearable devices" style="ellipse;whiteSpace=wrap;html=1;" vertex="1" parent="1">
          <mxGeometry x="-840" y="440" width="120" height="80" as="geometry" />
        </mxCell>
        <mxCell id="Zgwb3vR_fiv5eUfwZVeL-5" value="" style="endArrow=none;html=1;rounded=0;exitX=0.675;exitY=0.044;exitDx=0;exitDy=0;exitPerimeter=0;" edge="1" parent="1" source="Zgwb3vR_fiv5eUfwZVeL-4" target="Zgwb3vR_fiv5eUfwZVeL-1">
          <mxGeometry width="50" height="50" relative="1" as="geometry">
            <mxPoint x="-530" y="350" as="sourcePoint" />
            <mxPoint x="-480" y="300" as="targetPoint" />
          </mxGeometry>
        </mxCell>
        <mxCell id="Zgwb3vR_fiv5eUfwZVeL-6" value="why?" style="ellipse;whiteSpace=wrap;html=1;" vertex="1" parent="1">
          <mxGeometry x="-720" y="150" width="120" height="80" as="geometry" />
        </mxCell>
        <mxCell id="Zgwb3vR_fiv5eUfwZVeL-7" value="" style="endArrow=classic;html=1;rounded=0;" edge="1" parent="1" source="kBjCQtuUGjo8xMoTbUDO-1614" target="Zgwb3vR_fiv5eUfwZVeL-6">
          <mxGeometry width="50" height="50" relative="1" as="geometry">
            <mxPoint x="-510" y="290" as="sourcePoint" />
            <mxPoint x="-460" y="240" as="targetPoint" />
          </mxGeometry>
        </mxCell>
        <mxCell id="Zgwb3vR_fiv5eUfwZVeL-8" value="motivation" style="ellipse;whiteSpace=wrap;html=1;" vertex="1" parent="1">
          <mxGeometry x="-830" y="70" width="120" height="80" as="geometry" />
        </mxCell>
        <mxCell id="Zgwb3vR_fiv5eUfwZVeL-9" value="" style="endArrow=none;html=1;rounded=0;" edge="1" parent="1" source="Zgwb3vR_fiv5eUfwZVeL-8" target="Zgwb3vR_fiv5eUfwZVeL-6">
          <mxGeometry width="50" height="50" relative="1" as="geometry">
            <mxPoint x="-510" y="290" as="sourcePoint" />
            <mxPoint x="-460" y="240" as="targetPoint" />
          </mxGeometry>
        </mxCell>
      </root>
    </mxGraphModel>
  </diagram>
</mxfile>
